# xmcd
#
# Track frame offsets: 
#        150
#        18243
#        36373
#
# Disc length: 723 seconds
#
# Revision: 9
# Processed by: cddbd v1.5.2PL0 Copyright (c) Steve Scherf et al.
# Submitted via: ExactAudioCopy v0.95b4
#
DISCID=1b02d103
DTITLE=Kerbdog - Dry Riser [CD1)
DYEAR=1994
DGENRE=Metal
TTITLE0=Dry Riser
TTITLE1=Xenophobia
TTITLE2=Self Inflicted
EXTD=YEAR: 1991
EXTT0=
EXTT1=
EXTT2=
PLAYORDER=
